<?xml version="1.0" encoding="UTF-8" standalone="no"?>
<!-- Created with Inkscape (http://www.inkscape.org/) -->
<svg
   xmlns:dc="http://purl.org/dc/elements/1.1/"
   xmlns:cc="http://creativecommons.org/ns#"
   xmlns:rdf="http://www.w3.org/1999/02/22-rdf-syntax-ns#"
   xmlns:svg="http://www.w3.org/2000/svg"
   xmlns="http://www.w3.org/2000/svg"
   xmlns:sodipodi="http://sodipodi.sourceforge.net/DTD/sodipodi-0.dtd"
   xmlns:inkscape="http://www.inkscape.org/namespaces/inkscape"
   width="744.09448819"
   height="1052.3622047"
   id="svg2"
   sodipodi:version="0.32"
   inkscape:version="0.46"
   sodipodi:docname="logo_black.svg"
   inkscape:output_extension="org.inkscape.output.svg.inkscape">
  <defs
     id="defs4">
    <inkscape:perspective
       sodipodi:type="inkscape:persp3d"
       inkscape:vp_x="0 : 526.18109 : 1"
       inkscape:vp_y="0 : 1000 : 0"
       inkscape:vp_z="744.09448 : 526.18109 : 1"
       inkscape:persp3d-origin="372.04724 : 350.78739 : 1"
       id="perspective10" />
    <clipPath
       id="clipPath2457"
       clipPathUnits="userSpaceOnUse">
      <path
         id="path2459"
         d="M 0,0 L 105,0 L 105,208 L 0,208 L 0,0 z" />
    </clipPath>
    <inkscape:perspective
       id="perspective2447"
       inkscape:persp3d-origin="372.04724 : 350.78739 : 1"
       inkscape:vp_z="744.09448 : 526.18109 : 1"
       inkscape:vp_y="0 : 1000 : 0"
       inkscape:vp_x="0 : 526.18109 : 1"
       sodipodi:type="inkscape:persp3d" />
  </defs>
  <sodipodi:namedview
     id="base"
     pagecolor="#ffffff"
     bordercolor="#666666"
     borderopacity="1.0"
     gridtolerance="10000"
     guidetolerance="10"
     objecttolerance="10"
     inkscape:pageopacity="0.0"
     inkscape:pageshadow="2"
     inkscape:zoom="1.0068193"
     inkscape:cx="117.34492"
     inkscape:cy="668.61322"
     inkscape:document-units="px"
     inkscape:current-layer="layer1"
     showgrid="false"
     inkscape:window-width="1169"
     inkscape:window-height="810"
     inkscape:window-x="0"
     inkscape:window-y="0" />
  <metadata
     id="metadata7">
    <rdf:RDF>
      <cc:Work
         rdf:about="">
        <dc:format>image/svg+xml</dc:format>
        <dc:type
           rdf:resource="http://purl.org/dc/dcmitype/StillImage" />
      </cc:Work>
    </rdf:RDF>
  </metadata>
  <g
     inkscape:label="Layer 1"
     inkscape:groupmode="layer"
     id="layer1">
    <g
       id="g2451"
       transform="matrix(3.9737086,0,0,-3.9737086,110.79542,914.40597)" />
    <path
       d="M 507.54241,610.92192 C 517.82637,617.52619 524.66512,629.06584 524.66512,642.1513 C 524.66512,662.57616 508.00733,679.23395 487.58247,679.23395 C 467.16162,679.23395 450.50383,662.57616 450.50383,642.1513 C 450.50383,628.7241 457.70415,616.91821 468.44513,610.41325 L 468.44513,585.5339 C 468.44513,574.14521 468.52456,568.00984 466.64103,562.67709 C 464.75351,557.34441 460.90696,552.81438 453.05094,544.64046 C 440.99074,532.27027 431.60881,524.96266 422.1633,523.83015 C 412.71383,522.70158 403.19683,527.74421 390.8624,540.07865 L 338.81477,592.12628 C 327.62083,603.33214 309.32588,603.32419 298.12796,592.12628 L 246.39028,540.3886 C 234.03999,528.03831 224.49912,523.0672 215.03374,524.27918 C 205.5644,525.49116 196.16658,532.88623 184.1024,545.26036 C 176.24637,553.43031 172.34817,557.91658 170.41297,563.20563 C 168.4738,568.49464 168.50162,574.58232 168.50162,585.9511 L 168.50162,610.40927 C 179.23858,616.91821 186.44291,628.72016 186.44291,642.1513 C 186.44291,662.57616 169.78512,679.23395 149.36027,679.23395 C 128.93937,679.23395 112.28159,662.57616 112.28159,642.1513 C 112.28159,629.04203 119.14816,617.4785 129.4639,610.88219 L 129.4639,577.2209 C 129.4639,564.4891 128.77248,556.78412 130.27851,550.00894 C 131.78455,543.2298 135.49202,537.3805 144.28584,528.35621 L 165.09615,506.78294 C 174.66881,496.96788 180.12869,490.50663 180.82011,484.12088 C 181.50756,477.73513 177.42657,471.42488 167.90556,461.8999 L 147.05551,441.05383 C 135.85363,429.85989 135.86157,411.56494 147.05551,400.371 L 216.9292,330.49731 C 241.17677,306.25371 249.10432,295.77504 243.77955,291.3523 C 238.45081,286.93354 219.86975,288.57468 191.08818,288.57468 L 177.3312,288.57468 C 156.11159,288.57468 144.14278,287.27925 137.48285,280.64713 C 130.81894,274.01501 129.4639,262.0462 129.4639,240.70739 L 129.46788,203.65255 C 119.1561,197.13965 112.28159,185.64768 112.28159,172.59405 C 112.28159,152.37582 128.76453,135.89288 148.98276,135.89288 C 169.20099,135.89288 185.68791,152.37582 185.68791,172.59405 C 185.68791,185.64768 178.81339,197.14362 168.50162,203.65255 L 168.50162,226.59675 C 168.50162,240.66765 168.6248,246.40569 172.23293,248.62302 C 175.84106,250.84034 182.93015,249.54094 196.85403,249.54094 L 281.92318,249.54094 C 292.7873,249.54094 297.04314,247.92364 298.58494,244.06915 C 300.12674,240.21862 298.9545,234.12693 298.9545,225.17813 C 269.93053,216.69824 248.61953,189.8161 248.61953,158.11385 C 248.61953,119.64041 279.99991,88.264005 318.47335,88.264005 C 356.9468,88.264005 388.3232,119.64041 388.3232,158.11385 C 388.3232,189.8161 367.01618,216.69824 337.98824,225.17813 C 337.98824,236.17339 336.68089,242.26111 338.175,245.603 C 339.67309,248.94489 343.97264,249.54094 355.19439,249.54094 L 440.13245,249.54094 C 454.04834,249.54094 461.12949,250.83637 464.7257,248.61507 C 468.32592,246.39376 468.44513,240.6597 468.44513,226.59675 L 468.44513,203.65255 C 458.13332,197.14362 451.2588,185.65166 451.2588,172.59405 C 451.2588,152.37582 467.74174,135.89288 487.95997,135.89288 C 508.1782,135.89288 524.66512,152.37582 524.66512,172.59405 C 524.66512,185.64768 517.7906,197.13965 507.47883,203.64858 L 507.47883,240.70739 C 507.47883,259.53085 507.0139,271.49966 501.62953,278.75962 C 496.24917,286.01959 485.95325,288.57468 466.29535,288.57468 L 442.78292,288.57468 C 409.81302,288.57468 393.69168,288.63031 391.0293,293.89945 C 388.37089,299.16461 399.16348,309.64726 420.01353,330.49731 L 489.88722,400.371 C 501.0891,411.56494 501.08513,429.85989 489.88722,441.05383 L 469.24778,461.69724 C 457.2949,473.65016 454.06424,480.72733 456.75444,487.8363 C 459.44861,494.94129 468.06759,502.0741 479.81784,514.13033 L 493.36819,528.25686 C 502.22956,537.34469 505.94096,543.1781 507.39542,549.94536 C 508.84976,556.71255 508.05506,564.41364 507.91594,577.24073 L 507.54241,610.92192 z M 330.09248,287.45012 L 416.4054,373.76305 C 422.79516,380.15277 422.79119,390.61157 416.4054,397.00129 L 294.76223,518.64446 C 288.37251,525.03415 277.91371,525.03415 271.52399,518.64446 L 185.21106,432.33154 C 178.81736,425.94181 178.81736,415.48699 185.21106,409.09329 L 306.85423,287.45012 C 313.24395,281.0604 323.69878,281.0604 330.09248,287.45012 z M 392.91681,459.63886 C 399.75556,459.63886 405.33465,465.21795 405.33465,472.0567 C 405.33465,478.89545 399.75556,484.47454 392.91681,484.47454 C 386.07806,484.47454 380.49897,478.89545 380.49897,472.0567 C 380.49897,465.21795 386.07806,459.63886 392.91681,459.63886 z M 420.24003,434.79921 C 427.07878,434.79921 432.65787,440.3783 432.65787,447.22102 C 432.65787,454.05978 427.07878,459.63886 420.24003,459.63886 C 413.3973,459.63886 407.81822,454.05978 407.81822,447.22102 C 407.81822,440.3783 413.3973,434.79921 420.24003,434.79921 z M 447.55928,409.96353 C 454.39803,409.96353 459.97712,415.54262 459.97712,422.38137 C 459.97712,429.2241 454.39803,434.79921 447.55928,434.79921 C 440.72052,434.79921 435.14144,429.2241 435.14144,422.38137 C 435.14144,415.54262 440.72052,409.96353 447.55928,409.96353"
       style="fill:#000000;fill-opacity:1;fill-rule:evenodd;stroke:none"
       id="path2469" />
  </g>
</svg>
