<?xml version="1.0" encoding="UTF-8" standalone="no"?>
<!-- Created with Inkscape (http://www.inkscape.org/) -->
<svg
   xmlns:dc="http://purl.org/dc/elements/1.1/"
   xmlns:cc="http://creativecommons.org/ns#"
   xmlns:rdf="http://www.w3.org/1999/02/22-rdf-syntax-ns#"
   xmlns:svg="http://www.w3.org/2000/svg"
   xmlns="http://www.w3.org/2000/svg"
   xmlns:sodipodi="http://sodipodi.sourceforge.net/DTD/sodipodi-0.dtd"
   xmlns:inkscape="http://www.inkscape.org/namespaces/inkscape"
   width="744.09448819"
   height="1052.3622047"
   id="svg2"
   sodipodi:version="0.32"
   inkscape:version="0.46"
   sodipodi:docname="logo_titleless.svg"
   inkscape:output_extension="org.inkscape.output.svg.inkscape">
  <defs
     id="defs4">
    <inkscape:perspective
       sodipodi:type="inkscape:persp3d"
       inkscape:vp_x="0 : 526.18109 : 1"
       inkscape:vp_y="0 : 1000 : 0"
       inkscape:vp_z="744.09448 : 526.18109 : 1"
       inkscape:persp3d-origin="372.04724 : 350.78739 : 1"
       id="perspective10" />
    <clipPath
       id="clipPath2457"
       clipPathUnits="userSpaceOnUse">
      <path
         id="path2459"
         d="M 0,0 L 105,0 L 105,208 L 0,208 L 0,0 z" />
    </clipPath>
    <inkscape:perspective
       id="perspective2447"
       inkscape:persp3d-origin="372.04724 : 350.78739 : 1"
       inkscape:vp_z="744.09448 : 526.18109 : 1"
       inkscape:vp_y="0 : 1000 : 0"
       inkscape:vp_x="0 : 526.18109 : 1"
       sodipodi:type="inkscape:persp3d" />
  </defs>
  <sodipodi:namedview
     id="base"
     pagecolor="#ffffff"
     bordercolor="#666666"
     borderopacity="1.0"
     gridtolerance="10000"
     guidetolerance="10"
     objecttolerance="10"
     inkscape:pageopacity="0.0"
     inkscape:pageshadow="2"
     inkscape:zoom="0.35"
     inkscape:cx="375"
     inkscape:cy="520"
     inkscape:document-units="px"
     inkscape:current-layer="layer1"
     showgrid="false"
     inkscape:window-width="1169"
     inkscape:window-height="810"
     inkscape:window-x="0"
     inkscape:window-y="0" />
  <metadata
     id="metadata7">
    <rdf:RDF>
      <cc:Work
         rdf:about="">
        <dc:format>image/svg+xml</dc:format>
        <dc:type
           rdf:resource="http://purl.org/dc/dcmitype/StillImage" />
      </cc:Work>
    </rdf:RDF>
  </metadata>
  <g
     inkscape:label="Layer 1"
     inkscape:groupmode="layer"
     id="layer1">
    <g
       id="g2451"
       transform="matrix(3.9737086,0,0,-3.9737086,110.79542,914.40597)" />
    <g
       clip-path="url(#clipPath2457)"
       id="g2455"
       transform="matrix(3.9737086,0,0,-3.9737086,110.79542,914.40597)">
      <path
         id="path2463"
         style="fill:#fcc707;fill-opacity:1;fill-rule:evenodd;stroke:none"
         d="M 84.66,127.969 C 87.008,127.969 88.923,126.054 88.923,123.706 C 88.923,121.357 87.008,119.442 84.66,119.442 C 82.311,119.442 80.396,121.357 80.396,123.706 C 80.396,126.054 82.311,127.969 84.66,127.969" />
      <path
         id="path2465"
         style="fill:#00a650;fill-opacity:1;fill-rule:evenodd;stroke:none"
         d="M 77.8,121.852 C 80.149,121.852 82.064,119.936 82.064,117.588 C 82.064,115.239 80.149,113.324 77.8,113.324 C 75.452,113.324 73.536,115.239 73.536,117.588 C 73.536,119.936 75.452,121.852 77.8,121.852" />
      <path
         id="path2467"
         style="fill:#ed1c24;fill-opacity:1;fill-rule:evenodd;stroke:none"
         d="M 70.941,115.641 C 73.29,115.641 75.205,113.726 75.205,111.377 C 75.205,109.029 73.29,107.114 70.941,107.114 C 68.593,107.114 66.677,109.029 66.677,111.377 C 66.677,113.726 68.593,115.641 70.941,115.641" />
      <path
         id="path2469"
         style="fill:#286176;fill-opacity:1;fill-rule:evenodd;stroke:none"
         d="M 99.843,76.373 C 102.431,74.71101 104.152,71.80701 104.152,68.514 C 104.152,63.374 99.96,59.182 94.82,59.182 C 89.68101,59.182 85.48901,63.374 85.48901,68.514 C 85.48901,71.89301 87.301,74.86401 90.00401,76.50101 L 90.00401,82.762 C 90.00401,85.62801 90.024,87.172 89.55,88.51401 C 89.075,89.856 88.107,90.996 86.13,93.053 C 83.095,96.16601 80.734,98.005 78.357,98.29 C 75.979,98.57401 73.58401,97.30501 70.48,94.201 L 57.382,81.103 C 54.565,78.283 49.961,78.285 47.143,81.103 L 34.123,94.123 C 31.015,97.231 28.614,98.482 26.232,98.177 C 23.849,97.872 21.484,96.011 18.448,92.897 C 16.471,90.841 15.49,89.71201 15.003,88.381 C 14.515,87.05 14.522,85.51801 14.522,82.65701 L 14.522,76.50201 C 17.224,74.86401 19.037,71.894 19.037,68.514 C 19.037,63.374 14.845,59.182 9.705001,59.182 C 4.566,59.182 0.374,63.374 0.374,68.514 C 0.374,71.813 2.102,74.72301 4.698,76.383 L 4.698,84.854 C 4.698,88.05801 4.524,89.997 4.903,91.702 C 5.282,93.408 6.215,94.88 8.428,97.151 L 13.665,102.58 C 16.074,105.05 17.448,106.676 17.622,108.283 C 17.795,109.89 16.768,111.478 14.372,113.875 L 9.125,119.121 C 6.306,121.938 6.308,126.542 9.125,129.359 L 26.709,146.943 C 32.811,153.044 34.806,155.681 33.466,156.794 C 32.125,157.906 27.449,157.493 20.206,157.493 L 16.744,157.493 C 11.404,157.493 8.392,157.819 6.716001,159.488 C 5.039,161.157 4.698,164.169 4.698,169.539 L 4.699,178.864 C 2.104,180.503 0.374,183.395 0.374,186.68 C 0.374,191.768 4.522,195.916 9.61,195.916 C 14.698,195.916 18.847,191.768 18.847,186.68 C 18.847,183.395 17.117,180.502 14.522,178.864 L 14.522,173.09 C 14.522,169.549 14.553,168.105 15.461,167.547 C 16.369,166.989 18.153,167.316 21.657,167.316 L 43.065,167.316 C 45.799,167.316 46.87,167.723 47.258,168.693 C 47.646,169.662 47.351,171.195 47.351,173.447 C 40.047,175.581 34.684,182.346 34.684,190.324 C 34.684,200.006 42.581,207.902 52.263,207.902 C 61.945,207.902 69.841,200.006 69.841,190.324 C 69.841,182.346 64.479,175.581 57.174,173.447 C 57.174,170.68 56.845,169.148 57.221,168.307 C 57.598,167.466 58.68,167.316 61.504,167.316 L 82.87901,167.316 C 86.381,167.316 88.163,166.99 89.068,167.549 C 89.97401,168.108 90.00401,169.551 90.00401,173.09 L 90.00401,178.864 C 87.409,180.502 85.679,183.394 85.679,186.68 C 85.679,191.768 89.827,195.916 94.915,195.916 C 100.003,195.916 104.152,191.768 104.152,186.68 C 104.152,183.395 102.422,180.503 99.827,178.865 L 99.827,169.539 C 99.827,164.802 99.71,161.79 98.355,159.963 C 97.00101,158.136 94.41,157.493 89.46301,157.493 L 83.54601,157.493 C 75.249,157.493 71.192,157.479 70.522,156.153 C 69.853,154.828 72.569,152.19 77.816,146.943 L 95.4,129.359 C 98.219,126.542 98.218,121.938 95.4,119.121 L 90.206,113.926 C 87.19801,110.918 86.385,109.137 87.062,107.348 C 87.74,105.56 89.909,103.765 92.866,100.731 L 96.276,97.176 C 98.506,94.88901 99.43999,93.42101 99.80601,91.718 C 100.172,90.01501 99.97201,88.077 99.937,84.84901 L 99.843,76.373 z M 55.187,157.776 L 76.908,136.055 C 78.51601,134.447 78.51501,131.815 76.908,130.207 L 46.296,99.595 C 44.688,97.98701 42.056,97.98701 40.448,99.595 L 18.727,121.316 C 17.118,122.924 17.118,125.555 18.727,127.164 L 49.339,157.776 C 50.947,159.384 53.578,159.384 55.187,157.776 z M 70.997,114.444 C 72.718,114.444 74.122,113.04 74.122,111.319 C 74.122,109.598 72.718,108.194 70.997,108.194 C 69.276,108.194 67.872,109.598 67.872,111.319 C 67.872,113.04 69.276,114.444 70.997,114.444 z M 77.873,120.695 C 79.594,120.695 80.998,119.291 80.998,117.569 C 80.998,115.848 79.594,114.444 77.873,114.444 C 76.151,114.444 74.747,115.848 74.747,117.569 C 74.747,119.291 76.151,120.695 77.873,120.695 z M 84.748,126.945 C 86.469,126.945 87.873,125.541 87.873,123.82 C 87.873,122.098 86.469,120.695 84.748,120.695 C 83.027,120.695 81.623,122.098 81.623,123.82 C 81.623,125.541 83.027,126.945 84.748,126.945" />
    </g>
  </g>
</svg>
